# ProBuilder 5.0.7
# https://unity3d.com/unity/features/worldbuilding/probuilder
# 05.06.2023 22:43:59

mtllib ./floor.mtl
o floor

g floor
v -0.1784161 0.02 -0.1463311
v -0.1600388 0.02 -0.1463311
v -0.1600388 0.02 -0.08009468
v -0.1784161 0.02 -0.08009468
v 0.07542507 0.02 0.08009468
v 0.09380237 0.02 0.08009468
v 0.09380237 0.02 0.1463311
v 0.07542507 0.02 0.1463311
v -0.009188654 0.02 0.08009468
v 0.009188654 0.02 0.08009468
v 0.009188654 0.02 0.1463311
v -0.009188654 0.02 0.1463311
v -0.09380237 0.02 -0.1463311
v -0.07542507 0.02 -0.1463311
v -0.07542507 0.02 -0.08009468
v -0.09380237 0.02 -0.08009468
v 0.1600388 0.02 -0.1463311
v 0.1784161 0.02 -0.1463311
v 0.1784161 0.02 -0.08009468
v 0.1600388 0.02 -0.08009468
v -0.09380237 0.02 0.08009468
v -0.07542507 0.02 0.08009468
v -0.07542507 0.02 0.1463311
v -0.09380237 0.02 0.1463311
v -0.009188654 0.02 -0.1463311
v 0.009188654 0.02 -0.1463311
v 0.009188654 0.02 -0.08009468
v -0.009188654 0.02 -0.08009468
v -0.2446525 0 0.1463311
v -0.2446525 0 0.08009468
v -0.2446525 0.02 0.08009468
v -0.2446525 0.02 0.1463311
v 0.2446525 0 0.1463311
v 0.2446525 0 0.08009468
v 0.1600388 0.02 0.08009468
v 0.1784161 0.02 0.08009468
v 0.1784161 0.02 0.1463311
v 0.1600388 0.02 0.1463311
v 0.2446525 0.02 0.1463311
v 0.2446525 0.02 0.08009468
v -0.1784161 0.02 0.08009468
v -0.1600388 0.02 0.08009468
v -0.1600388 0.02 0.1463311
v -0.1784161 0.02 0.1463311
v 0.07542507 0.02 -0.1463311
v 0.09380237 0.02 -0.1463311
v 0.09380237 0.02 -0.08009468
v 0.07542507 0.02 -0.08009468
v -0.2446525 0.02 -0.1463311
v -0.2446525 0 -0.1463311
v 0.2446525 0 -0.1463311
v 0.2446525 0.02 -0.1463311
v 0.2446525 0.02 -0.08009468
v 0.2446525 0 -0.08009468
v -0.2446525 0 -0.08009468
v -0.2446525 0.02 -0.08009468
v -0.1784161 0.05649429 0.243835
v -0.1784161 0.05570398 -0.243822
v -0.1784161 0.02580693 -0.2454832
v -0.1784161 0.02501544 0.2454702
v -0.2446525 0.02580693 -0.2454832
v -0.2446525 0.05570398 -0.243822
v -0.2446525 0.05649429 0.243835
v -0.2446525 0.02501544 0.2454702
v 0.07542507 0.02580693 -0.2454832
v 0.009188652 0.02580693 -0.2454832
v 0.009188652 0.02501544 0.2454702
v 0.07542507 0.02501544 0.2454702
v -0.09380238 0.02580693 -0.2454832
v -0.1600388 0.02580693 -0.2454832
v 0.07542507 0.05649429 0.243835
v 0.07542507 0.05570398 -0.243822
v 0.009188652 0.05570398 -0.243822
v 0.009188652 0.05649429 0.243835
v -0.1600388 0.02501544 0.2454702
v -0.09380238 0.02501544 0.2454702
v -0.09380238 0.05649429 0.243835
v -0.09380238 0.05570398 -0.243822
v -0.1600388 0.05570398 -0.243822
v -0.1600388 0.05649429 0.243835
v 0.1600388 0.02580693 -0.2454832
v 0.09380238 0.02580693 -0.2454832
v 0.2446525 0.02580693 -0.2454832
v 0.1784161 0.02580693 -0.2454832
v -0.07542507 0.02580693 -0.2454832
v -0.07542507 0.05570398 -0.243822
v -0.07542507 0.05649429 0.243835
v -0.07542507 0.02501544 0.2454702
v -0.009188652 0.02580693 -0.2454832
v -0.009188652 0.05570398 -0.243822
v -0.009188652 0.02501544 0.2454702
v -0.009188652 0.05649429 0.243835
v 0.09380238 0.05570398 -0.243822
v 0.09380238 0.05649429 0.243835
v 0.09380238 0.02501544 0.2454702
v 0.1600388 0.02501544 0.2454702
v 0.1600388 0.05570398 -0.243822
v 0.1600388 0.05649429 0.243835
v 0.1784161 0.05570398 -0.243822
v 0.2446525 0.05570398 -0.243822
v 0.2446525 0.05649429 0.243835
v 0.1784161 0.05649429 0.243835
v 0.1784161 0.02501544 0.2454702
v 0.2446525 0.02501544 0.2454702

vt 7.024255 -5.761066
vt 6.300739 -5.761066
vt 6.300739 -3.153334
vt 7.024255 -3.153334
vt -2.969491 3.153334
vt -3.693007 3.153334
vt -3.693007 5.761066
vt -2.969491 5.761066
vt 0.361758 3.153334
vt -0.361758 3.153334
vt -0.361758 5.761066
vt 0.361758 5.761066
vt 3.693007 -5.761066
vt 2.969491 -5.761066
vt 2.969491 -3.153334
vt 3.693007 -3.153334
vt -6.300739 -5.761066
vt -7.024255 -5.761066
vt -7.024255 -3.153334
vt -6.300739 -3.153334
vt 3.693007 3.153334
vt 2.969491 3.153334
vt 2.969491 5.761066
vt 3.693007 5.761066
vt 0.361758 -5.761066
vt -0.361758 -5.761066
vt -0.361758 -3.153334
vt 0.361758 -3.153334
vt 5.761066 0
vt 3.153334 0
vt 3.153334 0.7874016
vt 5.761066 0.7874016
vt -9.631989 5.761066
vt 9.631989 5.761066
vt 9.631989 3.153334
vt -9.631989 3.153334
vt -6.300739 3.153334
vt -7.024255 3.153334
vt -7.024255 5.761066
vt -6.300739 5.761066
vt -5.761066 0.7874016
vt -3.153334 0.7874016
vt -3.153334 0
vt -5.761066 0
vt 7.024255 3.153334
vt 6.300739 3.153334
vt 6.300739 5.761066
vt 7.024255 5.761066
vt 9.631989 0.7874016
vt 9.631989 -2.599362E-14
vt -9.631989 -2.599362E-14
vt -9.631989 0.7874016
vt 7.024255 0.7874016
vt 6.300739 0.7874016
vt 3.693007 0.7874016
vt 2.969491 0.7874016
vt 0.361758 0.7874016
vt -0.361758 0.7874016
vt -2.969491 0.7874016
vt -3.693007 0.7874016
vt -6.300739 0.7874016
vt -7.024255 0.7874016
vt -2.969491 -5.761066
vt -3.693007 -5.761066
vt -3.693007 -3.153334
vt -2.969491 -3.153334
vt -9.631989 -3.153334
vt 9.631989 -3.153334
vt 9.631989 -5.761066
vt -9.631989 -5.761066
vt -9.631989 1.574803
vt 9.631989 1.574803
vt 2.969491 -9.631989
vt 0.361758 -9.631989
vt 0.361758 9.631989
vt 2.969491 9.631989
vt -3.693007 -9.631989
vt -6.300739 -9.631989
vt -0.361758 -9.631989
vt -2.969491 -9.631989
vt -2.969491 9.631989
vt -0.361758 9.631989
vt 2.969491 1.574803
vt 0.361758 1.574803
vt 9.631989 -9.631989
vt 7.024255 -9.631989
vt 7.024255 9.631989
vt 9.631989 9.631989
vt -0.361758 1.574803
vt -2.969491 1.574803
vt 7.024255 1.574803
vt -7.024255 1.574803
vt -6.300739 9.631989
vt -3.693007 9.631989
vt 6.300739 1.574803
vt 3.693007 1.574803
vt 6.300739 -9.631989
vt 3.693007 -9.631989
vt -3.693007 1.574803
vt -6.300739 1.574803
vt 3.693007 9.631989
vt 6.300739 9.631989
vt -9.631989 9.631989
vt -7.024255 9.631989
vt -7.024255 -9.631989
vt -9.631989 -9.631989

vn 0 1 0
vn -1 0 0
vn 0 -1 0
vn 1 -2.201112E-07 5.971259E-09
vn 0 0 1
vn 0 0 -1
vn 0 -0.9982894 -0.05846574
vn 0 -0.9987228 0.05052535
vn 0 0.9999986 -0.001620631
vn 0 0.05187634 0.9986535
vn 0 0.05547882 -0.9984598

usemtl woodDark
f 39/49/5 37/53/1 32/52/5
f 37/53/1 38/54/1 32/52/5
f 38/54/1 7/55/1 32/52/5
f 7/55/1 8/56/1 32/52/5
f 8/56/1 11/57/1 32/52/5
f 11/57/1 12/58/1 32/52/5
f 12/58/1 23/59/1 32/52/5
f 23/59/1 24/60/1 32/52/5
f 24/60/1 43/61/1 32/52/5
f 43/61/1 44/62/1 32/52/5
f 31/49/6 41/53/1 40/52/6
f 41/53/1 42/54/1 40/52/6
f 42/54/1 21/55/1 40/52/6
f 21/55/1 22/56/1 40/52/6
f 22/56/1 9/57/1 40/52/6
f 9/57/1 10/58/1 40/52/6
f 10/58/1 5/59/1 40/52/6
f 5/59/1 6/60/1 40/52/6
f 6/60/1 35/61/1 40/52/6
f 35/61/1 36/62/1 40/52/6
f 49/49/6 1/53/1 52/52/6
f 1/53/1 2/54/1 52/52/6
f 2/54/1 13/55/1 52/52/6
f 13/55/1 14/56/1 52/52/6
f 14/56/1 25/57/1 52/52/6
f 25/57/1 26/58/1 52/52/6
f 26/58/1 45/59/1 52/52/6
f 45/59/1 46/60/1 52/52/6
f 46/60/1 17/61/1 52/52/6
f 17/61/1 18/62/1 52/52/6
f 53/49/5 19/53/1 56/52/5
f 19/53/1 20/54/1 56/52/5
f 20/54/1 47/55/1 56/52/5
f 47/55/1 48/56/1 56/52/5
f 48/56/1 27/57/1 56/52/5
f 27/57/1 28/58/1 56/52/5
f 28/58/1 15/59/1 56/52/5
f 15/59/1 16/60/1 56/52/5
f 16/60/1 3/61/1 56/52/5
f 3/61/1 4/62/1 56/52/5
f 3/3/1 2/2/1 1/1/1
f 1/1/1 4/4/1 3/3/1
f 7/7/1 6/6/1 5/5/1
f 5/5/1 8/8/1 7/7/1
f 11/11/1 10/10/1 9/9/1
f 9/9/1 12/12/1 11/11/1
f 15/15/1 14/14/1 13/13/1
f 13/13/1 16/16/1 15/15/1
f 19/19/1 18/18/1 17/17/1
f 17/17/1 20/20/1 19/19/1
f 23/23/1 22/22/1 21/21/1
f 21/21/1 24/24/1 23/23/1
f 27/27/1 26/26/1 25/25/1
f 25/25/1 28/28/1 27/27/1
f 31/31/2 30/30/2 29/29/2
f 29/29/2 32/32/2 31/31/2
f 34/35/3 33/34/3 29/33/3
f 29/33/3 30/36/3 34/35/3
f 37/39/1 36/38/1 35/37/1
f 35/37/1 38/40/1 37/39/1
f 34/43/4 40/42/4 39/41/4
f 39/41/4 33/44/4 34/43/4
f 43/47/1 42/46/1 41/45/1
f 41/45/1 44/48/1 43/47/1
f 29/51/5 33/50/5 39/49/5
f 39/49/5 32/52/5 29/51/5
f 34/51/6 30/50/6 31/49/6
f 31/49/6 40/52/6 34/51/6
f 47/65/1 46/64/1 45/63/1
f 45/63/1 48/66/1 47/65/1
f 51/51/6 50/50/6 49/49/6
f 49/49/6 52/52/6 51/51/6
f 51/29/4 52/32/4 53/31/4
f 53/31/4 54/30/4 51/29/4
f 49/41/2 50/44/2 55/43/2
f 55/43/2 56/42/2 49/41/2
f 55/51/5 54/50/5 53/49/5
f 53/49/5 56/52/5 55/51/5
f 51/69/3 54/68/3 55/67/3
f 55/67/3 50/70/3 51/69/3

usemtl wood
f 1/32/4 59/49/4 58/72/4 57/71/4
f 57/71/4 41/42/4 4/31/4 1/32/4
f 57/71/4 60/52/4 44/41/4 41/42/4
f 63/72/2 62/71/2 61/52/2 49/41/2
f 31/31/2 63/72/2 49/41/2 56/42/2
f 64/49/2 63/72/2 31/31/2 32/32/2
f 66/74/7 65/73/7 45/14/7 26/25/7
f 11/12/8 8/23/8 68/76/8 67/75/8
f 70/78/7 69/77/7 13/64/7 2/17/7
f 45/32/4 65/49/4 72/72/4 71/71/4
f 71/71/4 5/42/4 48/31/4 45/32/4
f 71/71/4 68/52/4 8/41/4 5/42/4
f 74/82/9 71/81/9 72/80/9 73/79/9
f 74/84/10 67/57/10 68/56/10 71/83/10
f 63/88/9 57/87/9 58/86/9 62/85/9
f 74/72/2 73/71/2 66/52/2 26/41/2
f 10/31/2 74/72/2 26/41/2 27/42/2
f 67/49/2 74/72/2 10/31/2 11/32/2
f 3/20/3 16/65/3 21/6/3 42/37/3
f 72/90/11 65/59/11 66/58/11 73/89/11
f 58/91/11 59/53/11 61/49/11 62/72/11
f 63/71/10 64/52/10 60/62/10 57/92/10
f 27/28/3 48/15/3 5/22/3 10/9/3
f 43/40/8 24/7/8 76/94/8 75/93/8
f 13/32/4 69/49/4 78/72/4 77/71/4
f 77/71/4 21/42/4 16/31/4 13/32/4
f 77/71/4 76/52/4 24/41/4 21/42/4
f 36/45/3 19/4/3 53/68/3 40/35/3
f 78/96/11 69/55/11 70/54/11 79/95/11
f 80/72/2 79/71/2 70/52/2 2/41/2
f 42/31/2 80/72/2 2/41/2 3/42/2
f 75/49/2 80/72/2 42/31/2 43/32/2
f 82/98/7 81/97/7 17/2/7 46/13/7
f 84/86/7 83/85/7 52/69/7 18/1/7
f 80/100/10 75/61/10 76/60/10 77/99/10
f 80/102/9 77/101/9 78/98/9 79/97/9
f 56/67/3 4/19/3 41/38/3 31/36/3
f 87/72/2 86/71/2 85/52/2 14/41/2
f 22/31/2 87/72/2 14/41/2 15/42/2
f 88/49/2 87/72/2 22/31/2 23/32/2
f 90/84/11 89/57/11 85/56/11 86/83/11
f 23/8/8 12/11/8 91/82/8 88/81/8
f 87/90/10 88/59/10 91/58/10 92/89/10
f 25/32/4 89/49/4 90/72/4 92/71/4
f 92/71/4 9/42/4 28/31/4 25/32/4
f 92/71/4 91/52/4 12/41/4 9/42/4
f 87/76/9 92/75/9 90/74/9 86/73/9
f 85/80/7 89/79/7 25/26/7 14/63/7
f 32/33/8 44/39/8 60/104/8 64/103/8
f 15/66/3 28/27/3 9/10/3 22/5/3
f 61/106/7 59/105/7 1/18/7 49/70/7
f 94/72/2 93/71/2 82/52/2 46/41/2
f 6/31/2 94/72/2 46/41/2 47/42/2
f 95/49/2 94/72/2 6/31/2 7/32/2
f 7/24/8 38/47/8 96/102/8 95/101/8
f 94/94/9 98/93/9 97/78/9 93/77/9
f 17/32/4 81/49/4 97/72/4 98/71/4
f 98/71/4 35/42/4 20/31/4 17/32/4
f 98/71/4 96/52/4 38/41/4 35/42/4
f 94/96/10 95/55/10 96/54/10 98/95/10
f 97/100/11 81/61/11 82/60/11 93/99/11
f 102/104/9 101/103/9 100/106/9 99/105/9
f 100/71/11 83/52/11 84/62/11 99/92/11
f 102/72/2 99/71/2 84/52/2 18/41/2
f 36/31/2 102/72/2 18/41/2 19/42/2
f 103/49/2 102/72/2 36/31/2 37/32/2
f 102/91/10 103/53/10 104/49/10 101/72/10
f 52/32/4 83/49/4 100/72/4 101/71/4
f 101/71/4 40/42/4 53/31/4 52/32/4
f 101/71/4 104/52/4 39/41/4 40/42/4
f 37/48/8 39/34/8 104/88/8 103/87/8
f 47/16/3 20/3/3 35/46/3 6/21/3

